<svg width="16" height="14" viewBox="0 0 16 14" fill="none" xmlns="http://www.w3.org/2000/svg">
<g clip-path="url(#clip0)">
<path d="M14.9392 13.4178L13.7231 3.44716C13.6976 3.23842 13.4933 3.07993 13.2495 3.07993H10.9639V2.63125C10.9639 1.23266 9.64222 0.0947266 8.01783 0.0947266C6.39332 0.0947266 5.07167 1.23266 5.07167 2.63125V3.07993H2.78603C2.54226 3.07993 2.33791 3.23842 2.3124 3.44716L1.09634 13.4178C1.0823 13.5333 1.12588 13.6486 1.21609 13.735C1.30642 13.8213 1.43508 13.8706 1.56997 13.8706H14.4654C14.6005 13.8706 14.7291 13.8213 14.8193 13.735C14.9098 13.6486 14.9532 13.5333 14.9392 13.4178ZM6.02406 2.63125C6.02406 1.68481 6.91847 0.91473 8.01783 0.91473C9.11707 0.91473 10.0115 1.68481 10.0115 2.63125V3.07993H6.02406V2.63125ZM2.09877 13.0506L3.21486 3.89993H5.07167V4.80349C5.07167 5.02988 5.28493 5.2135 5.54786 5.2135C5.8108 5.2135 6.02406 5.02988 6.02406 4.80349V3.89993H10.0115V4.80349C10.0115 5.02988 10.2247 5.2135 10.4877 5.2135C10.7506 5.2135 10.9639 5.02988 10.9639 4.80349V3.89993H12.8207L13.9368 13.0506H2.09877Z" fill="black"/>
</g>
<defs>
<clipPath id="clip0">
<rect width="16" height="13.7759" fill="white" transform="translate(0 0.0947266)"/>
</clipPath>
</defs>
</svg>
