<svg width="17" height="17" viewBox="0 0 17 17" fill="none" xmlns="http://www.w3.org/2000/svg">
<g clip-path="url(#clip0)">
<path d="M8.49998 17.2495C8.25796 17.2495 8.02463 17.1619 7.8428 17.0026C7.15604 16.4021 6.49392 15.8378 5.90976 15.34L5.90677 15.3374C4.19409 13.8779 2.71513 12.6174 1.68609 11.3758C0.535788 9.98779 0 8.67172 0 7.234C0 5.83714 0.47898 4.54844 1.34861 3.60513C2.22863 2.65067 3.43613 2.125 4.74907 2.125C5.73038 2.125 6.62907 2.43524 7.42011 3.04704C7.81932 3.35585 8.18118 3.7338 8.49998 4.17464C8.81891 3.7338 9.18065 3.35585 9.57999 3.04704C10.371 2.43524 11.2697 2.125 12.251 2.125C13.5638 2.125 14.7715 2.65067 15.6515 3.60513C16.5211 4.54844 17 5.83714 17 7.234C17 8.67172 16.4643 9.98779 15.314 11.3757C14.285 12.6174 12.8061 13.8777 11.0937 15.3371C10.5085 15.8357 9.84536 16.4009 9.15704 17.0029C8.97533 17.1619 8.74187 17.2495 8.49998 17.2495ZM4.74907 3.12083C3.71758 3.12083 2.76999 3.5325 2.08064 4.28009C1.38104 5.03896 0.995703 6.08797 0.995703 7.234C0.995703 8.44319 1.44511 9.52463 2.45275 10.7404C3.42666 11.9156 4.87527 13.1501 6.55255 14.5795L6.55566 14.5821C7.14203 15.0819 7.80674 15.6484 8.49856 16.2533C9.19452 15.6472 9.86027 15.0798 10.4478 14.5793C12.125 13.1499 13.5734 11.9156 14.5473 10.7404C15.5549 9.52463 16.0043 8.44319 16.0043 7.234C16.0043 6.08797 15.6189 5.03896 14.9193 4.28009C14.2301 3.5325 13.2824 3.12083 12.251 3.12083C11.4954 3.12083 10.8016 3.36104 10.1891 3.8347C9.64315 4.257 9.26287 4.79085 9.03992 5.16438C8.92527 5.35647 8.72346 5.47112 8.49998 5.47112C8.27651 5.47112 8.0747 5.35647 7.96004 5.16438C7.73722 4.79085 7.35694 4.257 6.81091 3.8347C6.19834 3.36104 5.50457 3.12083 4.74907 3.12083Z" fill="black"/>
</g>
<defs>
<clipPath id="clip0">
<rect width="17" height="17" fill="white"/>
</clipPath>
</defs>
</svg>
